# xmcd
#
# Track frame offsets:
#	150
#	11147
#	21005
#	28957
#	37502
#	45395
#	53692
#	60165
#	68020
#	76265
#	84605
#	93277
#	103637
#	110807
#	118885
#	128130
#	137750
#	150810
#	163960
#	173050
#	184972
#	196187
#	211240
#	225877
#	240015
#
# Disc length: 3407 seconds
#
# Revision: 1
# Processed by: cddbd v1.5.1PL0 Copyright (c) Steve Scherf et al.
# Submitted via: CDex 1.50Beta5
#
DISCID=2f0d4d19
DTITLE=HuneX - BLUE BREAKER -剣よりも微笑みを-
DYEAR=1900
DGENRE=Soundtrack
TTITLE0=プロローグ
TTITLE1=ケインのテーマ
TTITLE2=アーシャのテーマ
TTITLE3=カルミーのテーマ
TTITLE4=サージュのテーマ
TTITLE5=ターナのテーマ
TTITLE6=ナルターのテーマ
TTITLE7=ハミュンのテーマ
TTITLE8=マヤのテーマ
TTITLE9=ヤームのテーマ
TTITLE10=ラミーユのテーマ
TTITLE11=ワイズのテーマ
TTITLE12=イナルのテーマ
TTITLE13=四天王のテーマ
TTITLE14=共通道
TTITLE15=冒険者ギルド
TTITLE16=イベントボスバトル
TTITLE17=四天王バトル
TTITLE18=悲しみのシーン
TTITLE19=ダークジーバトル2
TTITLE20=エピローグ
TTITLE21=ダークジーバトル2 -REMIX-
TTITLE22=ケインのテーマ -REMIX-
TTITLE23=共通道 -REMIX-
TTITLE24=笑顔の約束
EXTD=
EXTT0=
EXTT1=
EXTT2=
EXTT3=
EXTT4=
EXTT5=
EXTT6=
EXTT7=
EXTT8=
EXTT9=
EXTT10=
EXTT11=
EXTT12=
EXTT13=
EXTT14=
EXTT15=
EXTT16=
EXTT17=
EXTT18=
EXTT19=
EXTT20=
EXTT21=
EXTT22=
EXTT23=
EXTT24=
PLAYORDER=
